<svg width="126" height="28" viewBox="0 0 126 28" fill="none" xmlns="http://www.w3.org/2000/svg">
<path d="M10.8293 2.7998L8.61434 15.2999C8.55105 15.6341 8.51941 15.9787 8.51941 16.3338C8.51941 17.0439 8.70926 17.6078 9.08897 18.0255C9.46868 18.4224 10.0699 18.6208 10.8926 18.6208C11.9051 18.6208 12.7067 18.3284 13.2974 17.7436C13.888 17.1379 14.2783 16.3233 14.4682 15.2999L16.6831 2.7998H23.6761L21.4611 15.2999C21.0814 17.4721 20.322 19.2996 19.1828 20.7825C18.0648 22.2654 16.6831 23.3723 15.0377 24.1033C13.4134 24.8343 11.6204 25.1998 9.65853 25.1998C7.14824 25.1998 5.14424 24.5523 3.6465 23.2574C2.14877 21.9416 1.3999 20.0723 1.3999 17.6496C1.3999 16.8768 1.47373 16.0936 1.6214 15.2999L3.83636 2.7998H10.8293Z" fill="#E20001"/>
<path d="M44.9658 24.9805H37.9412L32.4988 13.8275L30.5053 24.9805H23.4807L27.436 2.7998H34.4606L39.8714 14.1408L41.8965 2.7998H48.9211L44.9658 24.9805Z" fill="#E20001"/>
<path d="M59.8495 2.7998L55.8942 24.9805H48.8696L52.8249 2.7998H59.8495Z" fill="#E20001"/>
<path d="M74.1943 2.7998C76.5991 2.7998 78.4238 3.33239 79.6684 4.39757C80.913 5.46274 81.5353 6.88297 81.5353 8.65826C81.5353 9.18041 81.4931 9.65034 81.4087 10.0681C81.1345 11.5718 80.4805 12.8981 79.4469 14.0468C78.4132 15.1746 77.0737 15.9892 75.4283 16.4904L78.7824 24.9805H71.0617L68.2455 17.023L66.8216 24.9805H59.7971L63.7523 2.7998H74.1943ZM69.0682 12.3864H71.8527C72.5278 12.3864 73.0552 12.2402 73.4349 11.9478C73.8357 11.6345 74.0993 11.1541 74.2259 10.5067C74.247 10.4022 74.2576 10.2665 74.2576 10.0994C74.2576 9.6399 74.1099 9.28484 73.8146 9.03421C73.5192 8.76269 73.0868 8.62694 72.5172 8.62694H69.7327L69.0682 12.3864Z" fill="#E20001"/>
<path d="M91.724 8.31365L91.2494 11.0706H98.2107L97.2614 16.3025H90.3001L89.7306 19.4353H97.6412L96.6602 24.9805H81.7251L85.6804 2.7998H100.616L99.6346 8.31365H91.724Z" fill="#E20001"/>
<path d="M113.328 2.7998C115.395 2.7998 117.167 3.17575 118.643 3.92763C120.12 4.65864 121.249 5.69248 122.029 7.02917C122.81 8.34498 123.2 9.86964 123.2 11.6032C123.2 12.2924 123.137 13.0338 123.01 13.8275C122.63 15.937 121.808 17.8376 120.542 19.5293C119.297 21.2211 117.705 22.5578 115.764 23.5394C113.844 24.5001 111.714 24.9805 109.372 24.9805H100.038L103.993 2.7998H113.328ZM109.847 18.7774C111.429 18.7774 112.758 18.3493 113.834 17.4929C114.931 16.6366 115.616 15.4148 115.891 13.8275C115.954 13.4098 115.985 13.0234 115.985 12.6683C115.985 11.4361 115.595 10.4962 114.815 9.84875C114.055 9.2013 112.99 8.87757 111.619 8.87757H109.942L108.17 18.7774H109.847Z" fill="#E20001"/>
</svg>
