<svg width="50" height="50" viewBox="0 0 50 50" fill="none" xmlns="http://www.w3.org/2000/svg">
<g clip-path="url(#clip0)">
<path d="M45.1074 0C44.5478 0 43.9756 0.107422 43.4092 0.34375L2.80664 19.083C-1.87792 21.2695 -0.316401 28.1406 4.68067 28.1406H21.8594V45.3193C21.8594 48.25 24.2236 50 26.6191 50C28.3086 50 30.0127 49.1309 30.917 47.1934L49.6572 6.58984C50.9824 3.40723 48.2558 0 45.1074 0ZM46.8213 5.28125L28.0859 45.873C27.7754 46.5391 27.2812 46.877 26.6182 46.877C26.0518 46.877 24.9814 46.5518 24.9814 45.3203V25.0176H4.68067C3.5625 25.0176 3.25098 24.1553 3.16797 23.7842C3.06055 23.3027 3.04395 22.4189 4.11524 21.9189L44.6113 3.22656C44.7783 3.15723 44.9404 3.12402 45.1084 3.12402C45.6377 3.12402 46.2305 3.48047 46.584 4.01074C46.7978 4.33203 47.0058 4.83203 46.8213 5.28125Z" fill="#E20001"/>
</g>
<defs>
<clipPath id="clip0">
<rect width="50" height="50" fill="white"/>
</clipPath>
</defs>
</svg>
